<svg t="1611818901299" class="icon" viewBox="0 0 1024 1024" version="1.1" xmlns="http://www.w3.org/2000/svg" p-id="2574" width="200" height="200"><path d="M909.726476 0H114.273524A114.297905 114.297905 0 0 0 0 114.297905v795.40419A114.273524 114.273524 0 0 0 114.297905 1024H463.969524a41.155048 41.155048 0 0 0 0-82.285714H139.459048a57.148952 57.148952 0 0 1-57.148953-57.148953V139.459048a57.148952 57.148952 0 0 1 57.148953-57.148953H884.540952a57.148952 57.148952 0 0 1 57.148953 57.148953v313.124571a41.155048 41.155048 0 0 0 82.285714 0V114.297905A114.273524 114.273524 0 0 0 909.702095 0z m-51.395047 715.50781l-74.118096-150.113524-74.093714 150.113524-165.668571 24.08838 119.881142 116.857905-28.281904 165.010286 148.187428-77.897143 148.163048 77.897143-28.281905-165.010286L1024 739.59619l-165.668571-24.08838zM198.851048 236.251429h612.571428c27.428571 0 41.155048 13.702095 41.155048 41.130666s-13.726476 41.155048-41.155048 41.155048H198.851048c-27.428571 0-41.130667-13.726476-41.130667-41.155048S171.398095 236.251429 198.851048 236.251429z m0 164.571428h612.571428c27.428571 0 41.155048 13.702095 41.155048 41.130667s-13.726476 41.155048-41.155048 41.155047H198.851048c-27.428571 0-41.130667-13.726476-41.130667-41.155047s13.702095-41.130667 41.130667-41.130667z m-0.121905 164.571429a41.008762 41.008762 0 0 0-41.008762 41.008762v0.243809a41.008762 41.008762 0 0 0 41.008762 41.033143h262.826667c22.820571 0 41.301333-18.480762 41.301333-41.276952a41.008762 41.008762 0 0 0-41.008762-41.008762H198.729143z" p-id="2575"></path></svg>