<svg width="130" height="130" t="1611734870486" class="icon" viewBox="0 0 1024 1024" version="1.1" xmlns="http://www.w3.org/2000/svg" p-id="2679" width="200" height="200"><path d="M658.285714 292.571429v658.285714h256a36.571429 36.571429 0 0 0 36.571429-36.571429v-585.142857a36.571429 36.571429 0 0 0-36.571429-36.571428H658.285714z m-36.571428-73.142858h292.571428A109.714286 109.714286 0 0 1 1024 329.142857v585.142857a109.714286 109.714286 0 0 1-109.714286 109.714286h-292.571428a36.571429 36.571429 0 0 1-36.571429-36.571429v-731.428571a36.571429 36.571429 0 0 1 36.571429-36.571429zM585.142857 109.714286a36.571429 36.571429 0 0 0-36.571428-36.571429h-438.857143a36.571429 36.571429 0 0 0-36.571429 36.571429v804.571428a36.571429 36.571429 0 0 0 36.571429 36.571429H585.142857V109.714286zM109.714286 0h438.857143A109.714286 109.714286 0 0 1 658.285714 109.714286v877.714285a36.571429 36.571429 0 0 1-36.571428 36.571429h-512A109.714286 109.714286 0 0 1 0 914.285714v-804.571428A109.714286 109.714286 0 0 1 109.714286 0z m73.142857 219.428571a36.571429 36.571429 0 0 0 0 73.142858h73.142857a36.571429 36.571429 0 0 0 0-73.142858h-73.142857z m0 219.428572a36.571429 36.571429 0 0 0 0 73.142857h73.142857a36.571429 36.571429 0 0 0 0-73.142857h-73.142857z m219.428571 0a36.571429 36.571429 0 0 0 0 73.142857h73.142857a36.571429 36.571429 0 0 0 0-73.142857h-73.142857z m0-219.428572a36.571429 36.571429 0 0 0 0 73.142858h73.142857a36.571429 36.571429 0 0 0 0-73.142858h-73.142857z m365.714286 219.428572h73.142857a36.571429 36.571429 0 1 1 0 73.142857h-73.142857a36.571429 36.571429 0 1 1 0-73.142857z m0 219.428571h73.142857a36.571429 36.571429 0 1 1 0 73.142857h-73.142857a36.571429 36.571429 0 1 1 0-73.142857zM292.571429 731.428571h73.142857v219.428572h73.142857V694.857143a36.571429 36.571429 0 0 0-36.571429-36.571429h-146.285714a36.571429 36.571429 0 0 0-36.571429 36.571429V950.857143h73.142858v-219.428572z" stroke="#979797" fill="#979797" p-id="2680"></path></svg>